<mxfile host="app.diagrams.net" modified="2020-10-23T12:42:29.852Z" agent="5.0 (Windows NT 10.0; Win64; x64) AppleWebKit/537.36 (KHTML, like Gecko) Chrome/86.0.4240.111 Safari/537.36" etag="zCoh9gxIq213vNN9NABD" version="13.8.1" type="github">
  <diagram id="C5RBs43oDa-KdzZeNtuy" name="Page-1">
    <mxGraphModel dx="1131" dy="524" grid="1" gridSize="10" guides="1" tooltips="1" connect="1" arrows="1" fold="1" page="1" pageScale="1" pageWidth="827" pageHeight="1169" math="0" shadow="0">
      <root>
        <mxCell id="WIyWlLk6GJQsqaUBKTNV-0" />
        <mxCell id="WIyWlLk6GJQsqaUBKTNV-1" parent="WIyWlLk6GJQsqaUBKTNV-0" />
        <mxCell id="AThCmjyFZTkLYUIXfEgY-18" value="" style="edgeStyle=orthogonalEdgeStyle;rounded=0;orthogonalLoop=1;jettySize=auto;html=1;" edge="1" parent="WIyWlLk6GJQsqaUBKTNV-1" source="AThCmjyFZTkLYUIXfEgY-0" target="AThCmjyFZTkLYUIXfEgY-1">
          <mxGeometry relative="1" as="geometry" />
        </mxCell>
        <mxCell id="AThCmjyFZTkLYUIXfEgY-0" value="&lt;font style=&quot;font-size: 14px&quot;&gt;开始&lt;/font&gt;" style="ellipse;whiteSpace=wrap;html=1;" vertex="1" parent="WIyWlLk6GJQsqaUBKTNV-1">
          <mxGeometry x="310" y="340" width="120" height="80" as="geometry" />
        </mxCell>
        <mxCell id="AThCmjyFZTkLYUIXfEgY-19" value="" style="edgeStyle=orthogonalEdgeStyle;rounded=0;orthogonalLoop=1;jettySize=auto;html=1;" edge="1" parent="WIyWlLk6GJQsqaUBKTNV-1" source="AThCmjyFZTkLYUIXfEgY-1" target="AThCmjyFZTkLYUIXfEgY-4">
          <mxGeometry relative="1" as="geometry" />
        </mxCell>
        <mxCell id="AThCmjyFZTkLYUIXfEgY-1" value="&lt;font style=&quot;font-size: 14px&quot;&gt;感受性阶段&lt;/font&gt;" style="rounded=0;whiteSpace=wrap;html=1;" vertex="1" parent="WIyWlLk6GJQsqaUBKTNV-1">
          <mxGeometry x="310" y="450" width="120" height="60" as="geometry" />
        </mxCell>
        <mxCell id="AThCmjyFZTkLYUIXfEgY-2" value="" style="shape=singleArrow;whiteSpace=wrap;html=1;" vertex="1" parent="WIyWlLk6GJQsqaUBKTNV-1">
          <mxGeometry x="450" y="450" width="100" height="60" as="geometry" />
        </mxCell>
        <mxCell id="AThCmjyFZTkLYUIXfEgY-3" value="&lt;span style=&quot;color: rgb(18 , 18 , 18) ; background-color: rgb(255 , 255 , 255)&quot;&gt;&lt;font style=&quot;font-size: 12px&quot;&gt;边界层外界的扰动或者壁面的扰动如何进入边界层转化为边界层内的失稳波的。&lt;/font&gt;&lt;/span&gt;" style="rounded=0;whiteSpace=wrap;html=1;" vertex="1" parent="WIyWlLk6GJQsqaUBKTNV-1">
          <mxGeometry x="570" y="450" width="170" height="60" as="geometry" />
        </mxCell>
        <mxCell id="AThCmjyFZTkLYUIXfEgY-20" value="" style="edgeStyle=orthogonalEdgeStyle;rounded=0;orthogonalLoop=1;jettySize=auto;html=1;" edge="1" parent="WIyWlLk6GJQsqaUBKTNV-1" source="AThCmjyFZTkLYUIXfEgY-4" target="AThCmjyFZTkLYUIXfEgY-11">
          <mxGeometry relative="1" as="geometry" />
        </mxCell>
        <mxCell id="AThCmjyFZTkLYUIXfEgY-4" value="&lt;span style=&quot;color: rgb(18 , 18 , 18) ; background-color: rgb(255 , 255 , 255)&quot;&gt;&lt;font style=&quot;font-size: 14px&quot;&gt;线性失稳阶段&lt;/font&gt;&lt;/span&gt;" style="whiteSpace=wrap;html=1;rounded=0;" vertex="1" parent="WIyWlLk6GJQsqaUBKTNV-1">
          <mxGeometry x="310" y="540" width="120" height="60" as="geometry" />
        </mxCell>
        <mxCell id="AThCmjyFZTkLYUIXfEgY-6" value="" style="shape=singleArrow;whiteSpace=wrap;html=1;" vertex="1" parent="WIyWlLk6GJQsqaUBKTNV-1">
          <mxGeometry x="450" y="540" width="100" height="60" as="geometry" />
        </mxCell>
        <mxCell id="AThCmjyFZTkLYUIXfEgY-10" value="&lt;span style=&quot;color: rgb(18 , 18 , 18) ; background-color: rgb(255 , 255 , 255)&quot;&gt;&lt;font style=&quot;font-size: 12px&quot;&gt;根据小扰动方程或者LNS方程来刻画的扰动线性增长过程&lt;/font&gt;&lt;/span&gt;" style="rounded=0;whiteSpace=wrap;html=1;" vertex="1" parent="WIyWlLk6GJQsqaUBKTNV-1">
          <mxGeometry x="570" y="540" width="170" height="60" as="geometry" />
        </mxCell>
        <mxCell id="AThCmjyFZTkLYUIXfEgY-21" value="" style="edgeStyle=orthogonalEdgeStyle;rounded=0;orthogonalLoop=1;jettySize=auto;html=1;" edge="1" parent="WIyWlLk6GJQsqaUBKTNV-1" source="AThCmjyFZTkLYUIXfEgY-11" target="AThCmjyFZTkLYUIXfEgY-14">
          <mxGeometry relative="1" as="geometry" />
        </mxCell>
        <mxCell id="AThCmjyFZTkLYUIXfEgY-11" value="&lt;span style=&quot;color: rgb(18 , 18 , 18) ; font-family: , &amp;#34;blinkmacsystemfont&amp;#34; , &amp;#34;helvetica neue&amp;#34; , &amp;#34;pingfang sc&amp;#34; , &amp;#34;microsoft yahei&amp;#34; , &amp;#34;source han sans sc&amp;#34; , &amp;#34;noto sans cjk sc&amp;#34; , &amp;#34;wenquanyi micro hei&amp;#34; , sans-serif ; font-size: 15px ; background-color: rgb(255 , 255 , 255)&quot;&gt;非线性增长阶段&lt;/span&gt;" style="rounded=0;whiteSpace=wrap;html=1;" vertex="1" parent="WIyWlLk6GJQsqaUBKTNV-1">
          <mxGeometry x="310" y="630" width="120" height="60" as="geometry" />
        </mxCell>
        <mxCell id="AThCmjyFZTkLYUIXfEgY-12" value="" style="shape=singleArrow;whiteSpace=wrap;html=1;" vertex="1" parent="WIyWlLk6GJQsqaUBKTNV-1">
          <mxGeometry x="450" y="630" width="100" height="60" as="geometry" />
        </mxCell>
        <mxCell id="AThCmjyFZTkLYUIXfEgY-13" value="&lt;span style=&quot;color: rgb(18 , 18 , 18) ; background-color: rgb(255 , 255 , 255)&quot;&gt;&lt;font style=&quot;font-size: 12px&quot;&gt;当前者的线性失稳扰动增长到一定幅值的时候，就会有其它的扰动出现，而这些扰动的出现统统被归结到非线性阶段&lt;/font&gt;&lt;/span&gt;" style="rounded=0;whiteSpace=wrap;html=1;" vertex="1" parent="WIyWlLk6GJQsqaUBKTNV-1">
          <mxGeometry x="570" y="630" width="170" height="60" as="geometry" />
        </mxCell>
        <mxCell id="AThCmjyFZTkLYUIXfEgY-14" value="&lt;span style=&quot;color: rgb(18 , 18 , 18) ; font-family: , &amp;#34;blinkmacsystemfont&amp;#34; , &amp;#34;helvetica neue&amp;#34; , &amp;#34;pingfang sc&amp;#34; , &amp;#34;microsoft yahei&amp;#34; , &amp;#34;source han sans sc&amp;#34; , &amp;#34;noto sans cjk sc&amp;#34; , &amp;#34;wenquanyi micro hei&amp;#34; , sans-serif ; font-size: 15px ; background-color: rgb(255 , 255 , 255)&quot;&gt;breakdown&lt;/span&gt;" style="rounded=0;whiteSpace=wrap;html=1;" vertex="1" parent="WIyWlLk6GJQsqaUBKTNV-1">
          <mxGeometry x="310" y="720" width="120" height="60" as="geometry" />
        </mxCell>
        <mxCell id="AThCmjyFZTkLYUIXfEgY-15" value="" style="shape=singleArrow;whiteSpace=wrap;html=1;" vertex="1" parent="WIyWlLk6GJQsqaUBKTNV-1">
          <mxGeometry x="450" y="720" width="100" height="60" as="geometry" />
        </mxCell>
        <mxCell id="AThCmjyFZTkLYUIXfEgY-16" value="&lt;span style=&quot;color: rgb(18 , 18 , 18) ; background-color: rgb(255 , 255 , 255)&quot;&gt;&lt;font style=&quot;font-size: 12px&quot;&gt;各种尺度下的扰动互相之间剧烈作用以至于流动向湍流发展的过程&amp;nbsp;&lt;/font&gt;&lt;/span&gt;" style="rounded=0;whiteSpace=wrap;html=1;" vertex="1" parent="WIyWlLk6GJQsqaUBKTNV-1">
          <mxGeometry x="570" y="720" width="170" height="60" as="geometry" />
        </mxCell>
        <mxCell id="AThCmjyFZTkLYUIXfEgY-22" value="" style="edgeStyle=orthogonalEdgeStyle;rounded=0;orthogonalLoop=1;jettySize=auto;html=1;" edge="1" parent="WIyWlLk6GJQsqaUBKTNV-1" source="AThCmjyFZTkLYUIXfEgY-17" target="AThCmjyFZTkLYUIXfEgY-14">
          <mxGeometry relative="1" as="geometry" />
        </mxCell>
        <mxCell id="AThCmjyFZTkLYUIXfEgY-17" value="&lt;span style=&quot;color: rgb(18 , 18 , 18) ; font-family: , &amp;#34;blinkmacsystemfont&amp;#34; , &amp;#34;helvetica neue&amp;#34; , &amp;#34;pingfang sc&amp;#34; , &amp;#34;microsoft yahei&amp;#34; , &amp;#34;source han sans sc&amp;#34; , &amp;#34;noto sans cjk sc&amp;#34; , &amp;#34;wenquanyi micro hei&amp;#34; , sans-serif ; font-size: 15px ; background-color: rgb(255 , 255 , 255)&quot;&gt;湍流&lt;/span&gt;" style="ellipse;whiteSpace=wrap;html=1;" vertex="1" parent="WIyWlLk6GJQsqaUBKTNV-1">
          <mxGeometry x="310" y="810" width="120" height="80" as="geometry" />
        </mxCell>
      </root>
    </mxGraphModel>
  </diagram>
</mxfile>
